<svg version="1.1" id="Layer_1" xmlns="http://www.w3.org/2000/svg" xmlns:xlink="http://www.w3.org/1999/xlink" x="0px" y="0px"
	 width="100%" viewBox="0 0 1500 1500" enable-background="new 0 0 1500 1500" xml:space="preserve">
<path fill="#FFFFFF" opacity="1.000000" stroke="none" 
	d="
M797.000000,1501.000000 
	C531.333374,1501.000000 266.166748,1501.000000 1.000107,1501.000000 
	C1.000071,1001.000122 1.000071,501.000275 1.000036,1.000308 
	C500.999756,1.000205 1000.999512,1.000205 1500.999512,1.000103 
	C1500.999634,500.999664 1500.999634,1000.999329 1500.999756,1500.999512 
	C1266.500000,1501.000000 1032.000000,1501.000000 797.000000,1501.000000 
M1125.377197,262.576050 
	C1125.377197,259.284698 1125.377197,255.993362 1125.377197,252.567139 
	C875.585449,252.567139 626.344910,252.567139 376.986267,252.567139 
	C376.986267,585.030029 376.986267,917.245544 376.986267,1249.326172 
	C626.582214,1249.326172 875.814636,1249.326172 1125.377075,1249.326172 
	C1125.377075,920.499512 1125.377075,592.026672 1125.377197,262.576050 
z"/>
<path fill="#040404" opacity="1.000000" stroke="none" 
	d="
M1125.377197,263.064911 
	C1125.377075,592.026672 1125.377075,920.499512 1125.377075,1249.326172 
	C875.814636,1249.326172 626.582214,1249.326172 376.986267,1249.326172 
	C376.986267,917.245544 376.986267,585.030029 376.986267,252.567139 
	C626.344910,252.567139 875.585449,252.567139 1125.377197,252.567139 
	C1125.377197,255.993362 1125.377197,259.284698 1125.377197,263.064911 
M1102.067505,1014.500000 
	C1102.067505,768.390442 1102.067505,522.280945 1102.067505,275.983459 
	C867.878113,275.983459 634.139526,275.983459 400.166626,275.983459 
	C400.166626,592.707520 400.166626,909.264038 400.166626,1226.008667 
	C634.121765,1226.008667 867.860413,1226.008667 1102.067505,1226.008667 
	C1102.067505,1155.728027 1102.067505,1085.614014 1102.067505,1014.500000 
z"/>
<path fill="#FFFFFF" opacity="1.000000" stroke="none" 
	d="
M1102.067505,1015.000000 
	C1102.067505,1085.614014 1102.067505,1155.728027 1102.067505,1226.008667 
	C867.860413,1226.008667 634.121765,1226.008667 400.166626,1226.008667 
	C400.166626,909.264038 400.166626,592.707520 400.166626,275.983459 
	C634.139526,275.983459 867.878113,275.983459 1102.067505,275.983459 
	C1102.067505,522.280945 1102.067505,768.390442 1102.067505,1015.000000 
M618.500061,322.182587 
	C561.256226,322.182587 504.012451,322.182587 446.736145,322.182587 
	C446.736145,608.429565 446.736145,893.983948 446.736145,1179.471191 
	C649.800110,1179.471191 852.514709,1179.471191 1055.263672,1179.471191 
	C1055.263672,893.570251 1055.263672,608.015808 1055.263672,322.182587 
	C909.776428,322.182587 764.638306,322.182587 618.500061,322.182587 
z"/>
<path fill="#010101" opacity="1.000000" stroke="none" 
	d="
M619.000122,322.182587 
	C764.638306,322.182587 909.776428,322.182587 1055.263672,322.182587 
	C1055.263672,608.015808 1055.263672,893.570251 1055.263672,1179.471191 
	C852.514709,1179.471191 649.800110,1179.471191 446.736145,1179.471191 
	C446.736145,893.983948 446.736145,608.429565 446.736145,322.182587 
	C504.012451,322.182587 561.256226,322.182587 619.000122,322.182587 
M719.944519,800.601746 
	C737.079590,807.387817 754.313538,813.936218 771.325928,821.016907 
	C795.492249,831.075134 818.798767,842.861023 839.288452,859.369507 
	C862.498230,878.069397 870.566650,905.550293 860.745422,932.307495 
	C852.595947,954.510132 835.535522,967.932312 814.122803,975.839417 
	C784.718079,986.697693 754.618652,985.733154 724.625854,978.459961 
	C686.106689,969.119202 653.341980,948.816284 623.324585,923.676514 
	C613.669922,915.590637 604.519104,906.903198 594.813965,898.200562 
	C568.718445,934.331116 542.635010,970.444885 516.108337,1007.172302 
	C521.829041,1013.502380 527.180786,1020.092957 533.218567,1025.979980 
	C551.445190,1043.751221 572.626465,1057.598145 594.098328,1071.037231 
	C654.999084,1109.154663 720.881531,1117.923462 790.278137,1103.332764 
	C835.345093,1093.857422 873.776672,1071.240112 907.333069,1040.084473 
	C953.629578,997.100342 982.116760,945.422668 984.524597,881.106995 
	C985.587219,852.723816 981.790222,825.141479 968.348755,799.815552 
	C947.359863,760.268982 915.194885,732.211609 874.679810,714.182129 
	C841.172974,699.271301 806.959900,685.937378 772.970581,672.124146 
	C747.320679,661.700073 722.634949,649.541870 700.317139,632.998779 
	C689.184265,624.746460 679.891296,614.863708 674.964417,601.582397 
	C664.655151,573.791870 678.069458,543.084595 706.772888,529.158264 
	C730.238586,517.773132 755.074463,517.556030 780.096313,521.511353 
	C818.257690,527.543579 853.734253,541.491211 887.535339,559.808350 
	C897.681274,565.306519 907.228088,571.910217 917.372192,578.207886 
	C940.086182,529.432556 962.835144,480.582153 985.654907,431.579590 
	C984.131226,430.865753 983.092712,430.366333 982.043884,429.889740 
	C936.797119,409.331360 889.409180,397.044739 839.851746,393.255035 
	C812.182922,391.139191 784.566956,391.578979 757.170105,396.361176 
	C709.546997,404.673889 667.388855,424.716675 630.714172,456.184540 
	C587.547729,493.222443 558.746521,538.300354 553.550476,596.219177 
	C550.754395,627.386108 553.829407,657.830505 568.013611,686.241455 
	C583.837769,717.937195 608.350281,741.884583 637.660400,760.990051 
	C663.110840,777.579773 691.482117,788.363464 719.944519,800.601746 
z"/>
<path fill="#FEFEFE" opacity="1.000000" stroke="none" 
	d="
M719.611450,800.410522 
	C691.482117,788.363464 663.110840,777.579773 637.660400,760.990051 
	C608.350281,741.884583 583.837769,717.937195 568.013611,686.241455 
	C553.829407,657.830505 550.754395,627.386108 553.550476,596.219177 
	C558.746521,538.300354 587.547729,493.222443 630.714172,456.184540 
	C667.388855,424.716675 709.546997,404.673889 757.170105,396.361176 
	C784.566956,391.578979 812.182922,391.139191 839.851746,393.255035 
	C889.409180,397.044739 936.797119,409.331360 982.043884,429.889740 
	C983.092712,430.366333 984.131226,430.865753 985.654907,431.579590 
	C962.835144,480.582153 940.086182,529.432556 917.372192,578.207886 
	C907.228088,571.910217 897.681274,565.306519 887.535339,559.808350 
	C853.734253,541.491211 818.257690,527.543579 780.096313,521.511353 
	C755.074463,517.556030 730.238586,517.773132 706.772888,529.158264 
	C678.069458,543.084595 664.655151,573.791870 674.964417,601.582397 
	C679.891296,614.863708 689.184265,624.746460 700.317139,632.998779 
	C722.634949,649.541870 747.320679,661.700073 772.970581,672.124146 
	C806.959900,685.937378 841.172974,699.271301 874.679810,714.182129 
	C915.194885,732.211609 947.359863,760.268982 968.348755,799.815552 
	C981.790222,825.141479 985.587219,852.723816 984.524597,881.106995 
	C982.116760,945.422668 953.629578,997.100342 907.333069,1040.084473 
	C873.776672,1071.240112 835.345093,1093.857422 790.278137,1103.332764 
	C720.881531,1117.923462 654.999084,1109.154663 594.098328,1071.037231 
	C572.626465,1057.598145 551.445190,1043.751221 533.218567,1025.979980 
	C527.180786,1020.092957 521.829041,1013.502380 516.108337,1007.172302 
	C542.635010,970.444885 568.718445,934.331116 594.813965,898.200562 
	C604.519104,906.903198 613.669922,915.590637 623.324585,923.676514 
	C653.341980,948.816284 686.106689,969.119202 724.625854,978.459961 
	C754.618652,985.733154 784.718079,986.697693 814.122803,975.839417 
	C835.535522,967.932312 852.595947,954.510132 860.745422,932.307495 
	C870.566650,905.550293 862.498230,878.069397 839.288452,859.369507 
	C818.798767,842.861023 795.492249,831.075134 771.325928,821.016907 
	C754.313538,813.936218 737.079590,807.387817 719.611450,800.410522 
z"/>
</svg>